<svg width="24" height="24" viewBox="0 0 24 24" fill="none" xmlns="http://www.w3.org/2000/svg">
<g filter="url(#filter0_d_222_1422)">
<path fill-rule="evenodd" clip-rule="evenodd" d="M11.9932 5.15567C9.9938 2.79653 6.65975 2.16192 4.15469 4.32219C1.64964 6.48246 1.29697 10.0943 3.2642 12.6493C4.89982 14.7736 9.84977 19.2538 11.4721 20.7039C11.6536 20.8661 11.7444 20.9473 11.8502 20.9791C11.9426 21.007 12.0437 21.007 12.1361 20.9791C12.2419 20.9473 12.3327 20.8661 12.5142 20.7039C14.1365 19.2538 19.0865 14.7736 20.7221 12.6493C22.6893 10.0943 22.3797 6.45974 19.8316 4.32219C17.2835 2.18465 13.9925 2.79653 11.9932 5.15567Z" fill="#FF2B59"/>
</g>
<defs>
<filter id="filter0_d_222_1422" x="1" y="2" width="22" height="20" filterUnits="userSpaceOnUse" color-interpolation-filters="sRGB">
<feFlood flood-opacity="0" result="BackgroundImageFix"/>
<feColorMatrix in="SourceAlpha" type="matrix" values="0 0 0 0 0 0 0 0 0 0 0 0 0 0 0 0 0 0 127 0" result="hardAlpha"/>
<feOffset/>
<feGaussianBlur stdDeviation="0.5"/>
<feComposite in2="hardAlpha" operator="out"/>
<feColorMatrix type="matrix" values="0 0 0 0 0 0 0 0 0 0 0 0 0 0 0 0 0 0 0.25 0"/>
<feBlend mode="normal" in2="BackgroundImageFix" result="effect1_dropShadow_222_1422"/>
<feBlend mode="normal" in="SourceGraphic" in2="effect1_dropShadow_222_1422" result="shape"/>
</filter>
</defs>
</svg>
