<svg width="57" height="49" viewBox="0 0 57 49" fill="none" xmlns="http://www.w3.org/2000/svg">
<path d="M47.1667 6.33154C48.0601 6.33171 48.7496 7.02119 48.7498 7.91455V47.0259C48.7498 47.6702 48.3243 48.2414 47.7585 48.4985L47.7468 48.5034L47.7341 48.5083C47.5884 48.5569 47.3821 48.6098 47.1667 48.6099C46.7937 48.6099 46.4608 48.4848 46.1755 48.2456L46.0564 48.1362L42.7214 44.8013L39.3875 48.1362C38.7944 48.7741 37.7916 48.7601 37.1677 48.1362L33.8328 44.8013L30.4988 48.1362C29.9058 48.7742 28.902 48.7602 28.2781 48.1362L24.9441 44.8022L21.6101 48.1362L21.6091 48.1353C21.0161 48.7733 20.0134 48.7602 19.3894 48.1362L16.0554 44.8022L12.7214 48.1362L12.7205 48.1353C12.1647 48.7334 11.2494 48.7594 10.6228 48.2466L10.5007 48.1362L8.72339 46.3589V46.3579C8.08829 45.7672 8.09908 44.7704 8.71558 44.146L8.83081 44.0327C9.43177 43.504 10.3557 43.5509 10.9431 44.1382L11.6111 44.8062L14.9451 41.4722C15.5381 40.8341 16.5418 40.8482 17.1658 41.4722L20.4998 44.8062L23.8337 41.4722C24.4267 40.8339 25.4304 40.8481 26.0544 41.4722L29.3884 44.8062L32.7234 41.4722C33.3164 40.8343 34.3192 40.8482 34.9431 41.4722L38.2771 44.8062L41.6121 41.4722C42.2051 40.8342 43.2078 40.8482 43.8318 41.4722L45.5828 43.2231V9.49854H11.4167V38.5815C11.4167 39.4752 10.7264 40.1655 9.83276 40.1655C8.93929 40.1654 8.24976 39.4751 8.24976 38.5815V7.91455L8.25757 7.74951C8.33674 6.93767 8.99525 6.3317 9.83276 6.33154H47.1667Z" fill="#C2C2C2" stroke="#C2C2C2" stroke-width="0.5"/>
<path d="M38.2804 24.11C39.1739 24.11 39.8642 24.7995 39.8644 25.693C39.8644 26.5866 39.174 27.277 38.2804 27.277H18.7247C17.8313 27.2768 17.1417 26.5865 17.1417 25.693C17.1419 24.7996 17.8314 24.1102 18.7247 24.11H38.2804Z" fill="#C2C2C2" stroke="#C2C2C2" stroke-width="0.5"/>
<path d="M38.2804 17.4429C39.1739 17.4429 39.8642 18.1324 39.8644 19.0259C39.8644 19.9195 39.174 20.6099 38.2804 20.6099H18.7247C17.8313 20.6097 17.1417 19.9194 17.1417 19.0259C17.1419 18.1325 17.8314 17.443 18.7247 17.4429H38.2804Z" fill="#C2C2C2" stroke="#C2C2C2" stroke-width="0.5"/>
<path d="M38.2794 30.7771C39.1728 30.7772 39.8622 31.4667 39.8624 32.3601C39.8624 33.2537 39.1729 33.944 38.2794 33.9441H36.501C35.6076 33.9439 34.918 33.2536 34.918 32.3601C34.9182 31.4667 35.6077 30.7773 36.501 30.7771H38.2794Z" fill="#C2C2C2" stroke="#C2C2C2" stroke-width="0.5"/>
<path d="M52.5 0.999023C54.8603 0.999023 56.75 2.88873 56.75 5.24902C56.75 7.60933 54.8603 9.49902 52.5 9.49902C51.6065 9.49902 50.9171 8.80952 50.917 7.91602C50.917 7.02238 51.6064 6.33203 52.5 6.33203C53.1175 6.33203 53.583 5.86652 53.583 5.24902C53.583 4.63155 53.1175 4.16602 52.5 4.16602H4.5C3.88253 4.16602 3.41701 4.63155 3.41699 5.24902C3.41699 5.86652 3.88252 6.33203 4.5 6.33203C5.39363 6.33203 6.08301 7.02238 6.08301 7.91602C6.08287 8.80952 5.39354 9.49902 4.5 9.49902C2.1397 9.49902 0.25 7.60933 0.25 5.24902C0.250018 2.88873 2.13972 0.999023 4.5 0.999023H52.5Z" fill="#C2C2C2" stroke="#C2C2C2" stroke-width="0.5"/>
</svg>
