<svg width="40" height="40" viewBox="0 0 40 40" fill="none" xmlns="http://www.w3.org/2000/svg">
<rect width="40" height="40" rx="10" fill="#0064FF"/>
<path d="M21.0888 14.8133L21.9182 10.8424C21.9275 10.7962 21.9254 10.7483 21.912 10.7032C21.8987 10.658 21.8744 10.6169 21.8416 10.5835C21.8087 10.5502 21.7682 10.5256 21.7237 10.5121C21.6791 10.4985 21.632 10.4963 21.5865 10.5058C20.3113 10.7399 19.0672 11.1228 17.8787 11.6469C12.2871 14.0517 8.90079 18.7634 10.3254 22.1799C11.3986 24.734 14.8729 25.8238 18.9125 25.1895L18.0811 29.1576C18.0718 29.2038 18.074 29.2517 18.0873 29.2968C18.1007 29.342 18.1249 29.3831 18.1578 29.4165C18.1907 29.4498 18.2312 29.4744 18.2757 29.4879C18.3202 29.5015 18.3674 29.5037 18.4129 29.4942C19.6881 29.2591 20.9325 28.8763 22.1216 28.3531C27.7226 25.9464 31.0986 21.2338 29.674 17.8191C28.6027 15.2688 25.1283 14.18 21.0888 14.8133Z" fill="white"/>
</svg>
