<svg width="41" height="40" viewBox="0 0 41 40" fill="none" xmlns="http://www.w3.org/2000/svg">
<g clip-path="url(#clip0_28_1707)">
<path d="M32.5 0H8.5C4.08172 0 0.5 3.58172 0.5 8V32C0.5 36.4183 4.08172 40 8.5 40H32.5C36.9183 40 40.5 36.4183 40.5 32V8C40.5 3.58172 36.9183 0 32.5 0Z" fill="#FAE103"/>
<path d="M20.4214 7.60133C13.4148 7.60133 7.73523 12.8557 7.73523 19.3364C7.73523 24.1238 9.74064 26.4069 12.4858 28.491L12.4981 28.4984V34.114C12.4981 34.3794 12.8004 34.5318 13.0142 34.372L17.8237 30.7987L17.9269 30.8429C18.733 30.9904 19.5661 31.069 20.4214 31.069C27.428 31.069 33.1076 25.8147 33.1076 19.3339C33.1076 12.8532 27.428 7.59888 20.4214 7.59888M16.1673 22.3101C17.4108 22.3101 18.475 21.5655 18.7945 20.4153H20.6327C20.183 22.6296 18.4602 24.0796 16.1673 24.0796C13.5008 24.0796 11.3872 22.0914 11.3872 19.3241C11.3872 16.5569 13.5008 14.5686 16.1673 14.5686C18.4848 14.5686 20.2199 16.0481 20.6475 18.2993H18.8141C18.534 17.0754 17.4354 16.3111 16.1673 16.3111C14.3757 16.3111 13.1813 17.589 13.1813 19.3241C13.1813 21.0592 14.5379 22.3101 16.1673 22.3101ZM28.2882 23.8977H26.6023V20.0958C26.6023 19.2209 26.0911 18.749 25.3096 18.749C24.4347 18.749 23.8719 19.2848 23.8719 20.3686V23.8977H22.186V14.5957H23.8719V18.0953C24.2749 17.4809 24.9286 17.1811 25.8183 17.1811C26.5384 17.1811 27.1257 17.417 27.5829 17.8987C28.0547 18.3829 28.2882 19.0366 28.2882 19.8845V23.8977Z" fill="#020304"/>
</g>
<defs>
<clipPath id="clip0_28_1707">
<rect width="40" height="40" fill="white" transform="translate(0.5)"/>
</clipPath>
</defs>
</svg>
