<svg width="80" height="80" viewBox="0 0 80 80" fill="none" xmlns="http://www.w3.org/2000/svg">
<rect x="0.5" y="0.5" width="79" height="79" rx="7.5" fill="#F2F2F2"/>
<rect x="0.5" y="0.5" width="79" height="79" rx="7.5" stroke="#DADADA" stroke-dasharray="2 2"/>
<path d="M39.27 42C38.3 41.91 37.65 42.81 36.97 43.76C36.86 43.92 36.74 44.08 36.62 44.25C36.24 44.75 36.05 44.79 36.02 44.8C35.92 44.8 35.68 44.6 35.48 44.42C35.1 44.07 34.59 43.59 33.82 43.59C31.81 43.59 30.67 46.97 30.54 47.35C30.5 47.5 30.52 47.67 30.62 47.79C30.71 47.92 30.86 48 31.02 48H43.02C43.19 48 43.35 47.91 43.44 47.76C43.53 47.61 43.54 47.43 43.46 47.27C41.65 43.63 40.44 42.1 39.27 42ZM31.74 47C32.16 46.01 32.95 44.59 33.82 44.59C34.19 44.59 34.49 44.86 34.8 45.15C35.15 45.48 35.54 45.84 36.11 45.8C36.55 45.76 36.97 45.46 37.42 44.85C37.55 44.68 37.67 44.51 37.78 44.35C38.29 43.64 38.78 42.98 39.19 43C39.65 43.04 40.53 43.78 42.2 47H31.74ZM48.5 46.79C48.5 46.95 48.37 47 48.26 47H46.5V36.25C46.5 35.56 45.94 35 45.25 35H30.5V33.29C30.5 33.14 30.64 33 30.77 33H43.5V32H30.77C30.08 32 29.5 32.59 29.5 33.29V35H28.75C28.06 35 27.5 35.56 27.5 36.25V49.75C27.5 50.44 28.06 51 28.75 51H45.25C45.94 51 46.5 50.44 46.5 49.75V48H48.26C48.96 48 49.5 47.47 49.5 46.79V38H48.5V46.79ZM45.5 49.75C45.5 49.89 45.39 50 45.25 50H28.75C28.61 50 28.5 49.89 28.5 49.75V36.25C28.5 36.11 28.61 36 28.75 36H45.25C45.39 36 45.5 36.11 45.5 36.25V49.75ZM33.51 42.04C34.61 42.04 35.51 41.14 35.51 40.04C35.51 38.94 34.61 38.04 33.51 38.04C32.41 38.04 31.51 38.94 31.51 40.04C31.51 41.14 32.41 42.04 33.51 42.04ZM33.51 39.04C34.06 39.04 34.51 39.49 34.51 40.04C34.51 40.59 34.06 41.04 33.51 41.04C32.96 41.04 32.51 40.59 32.51 40.04C32.51 39.48 32.96 39.04 33.51 39.04ZM52.5 33H49.5V36H48.5V33H45.5V32H48.5V29H49.5V32H52.5V33Z" fill="#C2C2C2"/>
</svg>
