<svg width="36" height="36" viewBox="0 0 36 36" fill="none" xmlns="http://www.w3.org/2000/svg">
<rect width="36" height="36" fill="white"/>
<path d="M17.5273 7.11829C17.871 6.9339 18.2982 6.96528 18.6143 7.21106L27.6143 14.2111C27.8576 14.4005 28 14.6917 28 15.0001V26.0001C28 26.7958 27.6837 27.5586 27.1211 28.1212C26.5585 28.6838 25.7957 29.0001 25 29.0001H21C20.4477 29.0001 20 28.5524 20 28.0001V22.0001H16V28.0001C16 28.5524 15.5523 29.0001 15 29.0001H11C10.2044 29.0001 9.44152 28.6838 8.87891 28.1212C8.3163 27.5586 8 26.7958 8 26.0001V15.0001C8 14.6917 8.14236 14.4005 8.38574 14.2111L17.3857 7.21106L17.5273 7.11829ZM10 15.4884V26.0001C10 26.2653 10.1054 26.5196 10.293 26.7072C10.4805 26.8947 10.7348 27.0001 11 27.0001H14V21.0001L14.0049 20.8976C14.0562 20.3935 14.4823 20.0001 15 20.0001H21L21.1025 20.005C21.6067 20.0563 22 20.4824 22 21.0001V27.0001H25C25.2652 27.0001 25.5195 26.8947 25.707 26.7072C25.8946 26.5196 26 26.2653 26 26.0001V15.4884L18 9.26673L10 15.4884Z" fill="black"/>
</svg>
