<svg width="81" height="80" viewBox="0 0 81 80" fill="none" xmlns="http://www.w3.org/2000/svg">
<path d="M31.7266 56.7119C34.0317 56.7121 35.8163 58.6137 35.8164 60.8545C35.8164 63.0954 34.0318 64.9968 31.7266 64.9971C29.4213 64.9969 27.6357 63.0955 27.6357 60.8545C27.6358 58.6136 29.4213 56.712 31.7266 56.7119ZM54.7266 56.7119C57.0316 56.7123 58.8163 58.6137 58.8164 60.8545C58.8164 63.0953 57.0317 64.9967 54.7266 64.9971C52.4211 64.9971 50.6357 63.0955 50.6357 60.8545C50.6358 58.6135 52.4212 56.7119 54.7266 56.7119ZM31.708 60.7148C31.7019 60.7175 31.6915 60.7242 31.6797 60.7363C31.6562 60.7605 31.6358 60.7987 31.6357 60.8545C31.6357 60.9104 31.6561 60.9494 31.6797 60.9736C31.6914 60.9856 31.702 60.9915 31.708 60.9941C31.7125 60.9961 31.7178 60.9971 31.7266 60.9971C31.735 60.997 31.7398 60.996 31.7441 60.9941C31.7501 60.9916 31.7607 60.9856 31.7725 60.9736C31.7961 60.9494 31.8164 60.9105 31.8164 60.8545C31.8164 60.7986 31.7961 60.7605 31.7725 60.7363C31.7606 60.7242 31.7502 60.7175 31.7441 60.7148C31.7398 60.713 31.7349 60.712 31.7266 60.7119C31.7178 60.7119 31.7125 60.7129 31.708 60.7148ZM54.708 60.7148C54.702 60.7175 54.6916 60.7242 54.6797 60.7363C54.6561 60.7605 54.6358 60.7986 54.6357 60.8545C54.6357 60.9105 54.6561 60.9494 54.6797 60.9736C54.6915 60.9856 54.702 60.9916 54.708 60.9941C54.7125 60.996 54.7177 60.9971 54.7266 60.9971C54.735 60.997 54.7397 60.996 54.7441 60.9941C54.7502 60.9915 54.7608 60.9855 54.7725 60.9736C54.796 60.9494 54.8164 60.9104 54.8164 60.8545C54.8164 60.7987 54.796 60.7605 54.7725 60.7363C54.7607 60.7242 54.7502 60.7175 54.7441 60.7148C54.7398 60.713 54.7349 60.712 54.7266 60.7119C54.7178 60.7119 54.7125 60.713 54.708 60.7148ZM23.541 16.0078C24.4204 16.0856 25.1541 16.736 25.3262 17.6162L27.1025 26.7139H61C61.5943 26.714 62.1582 26.9785 62.5381 27.4355C62.9179 27.8927 63.0746 28.4957 62.9658 29.0801L59.6201 47.0576C59.6192 47.0625 59.6181 47.0674 59.6172 47.0723C59.339 48.5076 58.5752 49.8067 57.4473 50.7373C56.3282 51.6605 54.9229 52.1597 53.4727 52.1406V52.1416H33.1484V52.1406C31.6982 52.1596 30.2928 51.6605 29.1738 50.7373C28.0464 49.8071 27.2824 48.5088 27.0039 47.0742V47.0752L23.501 29.1426C23.4965 29.1219 23.4931 29.101 23.4893 29.0801L21.7158 20H15C13.8954 20 13 19.1046 13 18C13 16.8954 13.8954 16 15 16H23.3633L23.541 16.0078ZM30.9297 46.3086L30.9307 46.3115L30.9775 46.5098C31.1071 46.9649 31.3689 47.363 31.7197 47.6523C32.1194 47.9819 32.6113 48.1513 33.1094 48.1416H53.5117L53.6982 48.1367C54.1316 48.1063 54.5526 47.9409 54.9023 47.6523C55.3031 47.3217 55.5862 46.8489 55.6904 46.3115L58.5928 30.7139H27.8838L30.9297 46.3086Z" fill="#C2C2C2"/>
</svg>
