<svg width="25" height="24" viewBox="0 0 25 24" fill="none" xmlns="http://www.w3.org/2000/svg">
<path d="M9.50522 3.99414C9.29312 3.99419 9.08969 4.07832 8.93947 4.22805L1.735 11.4325C1.6605 11.507 1.6014 11.5954 1.56108 11.6927C1.52075 11.79 1.5 11.8942 1.5 11.9996C1.5 12.1049 1.52075 12.2092 1.56108 12.3065C1.6014 12.4038 1.6605 12.4922 1.735 12.5666L8.93947 19.7711C9.08969 19.9209 9.29312 20.005 9.50522 20.005H22.6978C22.9104 20.0052 23.1143 19.9209 23.2647 19.7707C23.4152 19.6205 23.4998 19.4167 23.5 19.2041V4.79508C23.4998 4.58249 23.4152 4.37872 23.2647 4.22852C23.1143 4.07831 22.9104 3.99398 22.6978 3.99414H9.50522Z" stroke="#A9C2F7"/>
<path d="M18.8333 15.8333L11.5127 8.5M11.5 15.8333L18.8206 8.5" stroke="#A9C2F7" stroke-linecap="round"/>
</svg>
