<svg width="32" height="32" viewBox="0 0 32 32" fill="none" xmlns="http://www.w3.org/2000/svg">
<circle cx="16.0013" cy="16" r="13.3333" fill="#FFBB00"/>
<circle cx="16" cy="16" r="11.3333" stroke="white" stroke-width="1.33333"/>
<path d="M12.8178 20L11.991 16.5635H10.668V15.4365H11.7193L10.8924 12H12.7115L13.4085 15.4365H14.3889L15.1803 12H16.8223L17.6255 15.4365H18.606L19.2911 12H21.1102L20.2833 15.4365H21.3346V16.5635H20.0116L19.173 20H17.2475L16.4797 16.5635H15.5111L14.7433 20H12.8178ZM13.6329 16.5635L13.8219 17.5359H13.8928L14.1172 16.5635H13.6329ZM15.7591 15.4365H16.2316L16.0308 14.5414H15.96L15.7591 15.4365ZM17.8854 16.5635L18.1098 17.547H18.1807L18.3815 16.5635H17.8854Z" fill="white"/>
</svg>
