<svg width="20" height="16" viewBox="0 0 20 16" fill="none" xmlns="http://www.w3.org/2000/svg">
<path d="M17 0.5C17.6375 0.499964 18.2509 0.743444 18.7148 1.18066C19.1769 1.61638 19.4559 2.21198 19.4951 2.8457L19.5 3.01465V4.81738C19.4977 4.99863 19.4487 5.17637 19.3574 5.33301C19.2667 5.48844 19.1365 5.61687 18.9814 5.70801L18.8965 5.75586C18.4921 5.95436 18.1491 6.2592 17.9033 6.63672C17.6576 7.01419 17.5179 7.45132 17.5 7.90137C17.4822 8.35135 17.5868 8.79762 17.8018 9.19336C18.0168 9.58923 18.3343 9.92036 18.7217 10.1504L18.7314 10.1553L18.7412 10.1611L18.8809 10.2354L18.8877 10.2393L18.8955 10.2432C19.2004 10.3939 19.4555 10.6976 19.4941 11.0771L19.5 11.1826V13L19.4883 13.2373C19.4358 13.7883 19.202 14.3088 18.8193 14.7148C18.3834 15.1772 17.7874 15.4562 17.1533 15.4951L16.9854 15.5H3L2.7627 15.4883C2.21174 15.4358 1.69116 15.202 1.28516 14.8193C0.822808 14.3834 0.542856 13.7874 0.503906 13.1533L0.5 12.9854V11.1826C0.500146 10.7868 0.727292 10.4657 1.02539 10.2861L1.10352 10.2441C1.50791 10.0456 1.85087 9.7408 2.09668 9.36328C2.34239 8.98581 2.48207 8.54868 2.5 8.09863C2.51784 7.64865 2.41318 7.20238 2.19824 6.80664C1.98323 6.41077 1.66566 6.07964 1.27832 5.84961L1.26855 5.84473L1.25879 5.83887L1.11914 5.76465L1.1123 5.76074L1.10449 5.75684L0.992188 5.69336C0.738348 5.52889 0.538334 5.25425 0.504883 4.92188L0.5 4.81836V3L0.511719 2.7627C0.56421 2.21174 0.798013 1.69116 1.18066 1.28516C1.61639 0.823045 2.21196 0.543081 2.8457 0.503906L3.01465 0.5H17Z" fill="#CB9DF2" stroke="#F2E6FC"/>
<path d="M7.27801 5.22624C7.23152 4.8914 6.98512 4.67873 6.60855 4.67873C6.11111 4.67873 5.80893 5.04525 5.80893 5.68326C5.80893 6.34389 6.12041 6.68778 6.60391 6.68778C6.96653 6.68778 7.21757 6.49774 7.27801 6.17647L8.07764 6.181C8.01255 6.76471 7.50116 7.36652 6.58996 7.36652C5.67875 7.36652 5 6.76018 5 5.68326C5 4.60181 5.6927 4 6.58996 4C7.39888 4 7.99396 4.44344 8.07764 5.22624H7.27801Z" fill="white"/>
<path d="M11.6946 5.68326C11.6946 6.76471 10.9972 7.36652 10.0953 7.36652C9.18875 7.36652 8.49605 6.76018 8.49605 5.68326C8.49605 4.60181 9.18875 4 10.0953 4C10.9972 4 11.6946 4.60181 11.6946 5.68326ZM10.8856 5.68326C10.8856 5.03167 10.5881 4.67873 10.0953 4.67873C9.60251 4.67873 9.30497 5.03167 9.30497 5.68326C9.30497 6.33484 9.60251 6.68778 10.0953 6.68778C10.5881 6.68778 10.8856 6.33484 10.8856 5.68326Z" fill="white"/>
<path d="M14.205 4.04525H15V6.15837C15 6.8914 14.4282 7.36652 13.5821 7.36652C12.7313 7.36652 12.1641 6.8914 12.1641 6.15837V4.04525H12.9544V6.09502C12.9544 6.44344 13.2101 6.69231 13.5821 6.69231C13.954 6.69231 14.205 6.44344 14.205 6.09502V4.04525Z" fill="white"/>
<path d="M5.28126 11.9548V8.67873H6.65737C7.41516 8.67873 7.88006 9.14027 7.88006 9.80543C7.88006 10.4842 7.40586 10.9276 6.63412 10.9276H6.07159V11.9548H5.28126ZM6.07159 10.3167H6.49C6.86192 10.3167 7.06183 10.1131 7.06183 9.80543C7.06183 9.49774 6.86192 9.30317 6.49 9.30317H6.07159V10.3167Z" fill="white"/>
<path d="M11.4365 10.3167C11.4365 11.3982 10.7392 12 9.83729 12C8.93073 12 8.23803 11.3937 8.23803 10.3167C8.23803 9.23529 8.93073 8.63348 9.83729 8.63348C10.7392 8.63348 11.4365 9.23529 11.4365 10.3167ZM10.6276 10.3167C10.6276 9.66516 10.3301 9.31222 9.83729 9.31222C9.34449 9.31222 9.04696 9.66516 9.04696 10.3167C9.04696 10.9683 9.34449 11.3213 9.83729 11.3213C10.3301 11.3213 10.6276 10.9683 10.6276 10.3167Z" fill="white"/>
<path d="M14.7606 8.67873V11.9548H14.0865L12.7197 10.0317H12.6964V11.9548H11.9061V8.67873H12.5895L13.9424 10.6018H13.9702V8.67873H14.7606Z" fill="white"/>
</svg>
