<svg width="26" height="26" viewBox="0 0 26 26" fill="none" xmlns="http://www.w3.org/2000/svg">
<mask id="mask0_248_20748" style="mask-type:alpha" maskUnits="userSpaceOnUse" x="0" y="0" width="26" height="26">
<rect x="0.75" y="0.833984" width="25" height="25" fill="#D9D9D9"/>
</mask>
<g mask="url(#mask0_248_20748)">
<path d="M13.25 14.9915L8.24557 19.9962C8.02543 20.2162 7.74913 20.3262 7.41667 20.3262C7.0842 20.3262 6.8079 20.2162 6.58776 19.9962C6.3678 19.7761 6.25781 19.4998 6.25781 19.1673C6.25781 18.8349 6.3678 18.5586 6.58776 18.3384L11.5924 13.334L6.58776 8.32956C6.3678 8.10942 6.25781 7.83312 6.25781 7.50065C6.25781 7.16819 6.3678 6.89188 6.58776 6.67174C6.8079 6.45178 7.0842 6.3418 7.41667 6.3418C7.74913 6.3418 8.02543 6.45178 8.24557 6.67174L13.25 11.6764L18.2544 6.67174C18.4746 6.45178 18.7509 6.3418 19.0833 6.3418C19.4158 6.3418 19.6921 6.45178 19.9122 6.67174C20.1322 6.89188 20.2422 7.16819 20.2422 7.50065C20.2422 7.83312 20.1322 8.10942 19.9122 8.32956L14.9076 13.334L19.9122 18.3384C20.1322 18.5586 20.2422 18.8349 20.2422 19.1673C20.2422 19.4998 20.1322 19.7761 19.9122 19.9962C19.6921 20.2162 19.4158 20.3262 19.0833 20.3262C18.7509 20.3262 18.4746 20.2162 18.2544 19.9962L13.25 14.9915Z" fill="black"/>
</g>
</svg>
