<svg width="22" height="4" viewBox="0 0 22 4" fill="none" xmlns="http://www.w3.org/2000/svg">
<rect width="22" height="4" fill="white"/>
<path d="M2 4C3.10457 4 4 3.10457 4 2C4 0.895431 3.10457 0 2 0C0.895431 0 0 0.895431 0 2C0 3.10457 0.895431 4 2 4Z" fill="#222222"/>
<path d="M11 4C12.1046 4 13 3.10457 13 2C13 0.895431 12.1046 0 11 0C9.89543 0 9 0.895431 9 2C9 3.10457 9.89543 4 11 4Z" fill="#222222"/>
<path d="M20 4C21.1046 4 22 3.10457 22 2C22 0.895431 21.1046 0 20 0C18.8954 0 18 0.895431 18 2C18 3.10457 18.8954 4 20 4Z" fill="#222222"/>
</svg>
