<svg width="24" height="24" viewBox="0 0 24 24" fill="none" xmlns="http://www.w3.org/2000/svg">
<g id="Icon/24px/eye">
<path id="Icon" d="M2.90852 10.8282L3.58998 11.1415H3.58998L2.90852 10.8282ZM21.0904 13.1718L20.4089 12.8585L21.0904 13.1718ZM2.90852 13.1718L2.22706 13.485H2.22706L2.90852 13.1718ZM21.0904 10.8282L20.4089 11.1415L21.0904 10.8282ZM17.831 5.9678C17.4833 5.74282 17.0189 5.84238 16.794 6.19017C16.569 6.53795 16.6685 7.00227 17.0163 7.22725L17.831 5.9678ZM7.02601 16.8007C6.67697 16.5776 6.21321 16.6798 5.99018 17.0288C5.76714 17.3779 5.86929 17.8416 6.21833 18.0647L7.02601 16.8007ZM3.39983 15.4515C3.64863 15.7826 4.11879 15.8494 4.44995 15.6006C4.78111 15.3518 4.84787 14.8816 4.59907 14.5505L3.39983 15.4515ZM13.8502 5.93505C14.2562 6.01745 14.6521 5.75517 14.7345 5.34924C14.8169 4.9433 14.5546 4.54743 14.1486 4.46503L13.8502 5.93505ZM20.5298 4.53033C20.8227 4.23744 20.8227 3.76256 20.5298 3.46967C20.2369 3.17678 19.762 3.17678 19.4691 3.46967L20.5298 4.53033ZM3.4691 19.4697C3.17621 19.7626 3.17621 20.2374 3.4691 20.5303C3.762 20.8232 4.23687 20.8232 4.52976 20.5303L3.4691 19.4697ZM11.9994 4.25C7.66193 4.25 3.92598 6.81889 2.22706 10.515L3.58998 11.1415C5.05327 7.95797 8.2693 5.75 11.9994 5.75V4.25ZM11.9994 19.75C16.337 19.75 20.0729 17.1811 21.7718 13.485L20.4089 12.8585C18.9456 16.042 15.7296 18.25 11.9994 18.25V19.75ZM2.22706 10.515C1.7941 11.4569 1.7941 12.5431 2.22706 13.485L3.58998 12.8585C3.3398 12.3142 3.3398 11.6858 3.58998 11.1415L2.22706 10.515ZM20.4089 11.1415C20.6591 11.6858 20.6591 12.3142 20.4089 12.8585L21.7718 13.485C22.2048 12.5431 22.2048 11.4569 21.7718 10.515L20.4089 11.1415ZM21.7718 10.515C20.9144 8.64972 19.5395 7.07295 17.831 5.9678L17.0163 7.22725C18.4876 8.17901 19.6715 9.53708 20.4089 11.1415L21.7718 10.515ZM6.21833 18.0647C7.88811 19.1316 9.87271 19.75 11.9994 19.75V18.25C10.1674 18.25 8.46179 17.7181 7.02601 16.8007L6.21833 18.0647ZM2.22706 13.485C2.54852 14.1844 2.94271 14.8431 3.39983 15.4515L4.59907 14.5505C4.20549 14.0266 3.86637 13.4598 3.58998 12.8585L2.22706 13.485ZM14.1486 4.46503C13.4536 4.32394 12.7348 4.25 11.9994 4.25V5.75C12.634 5.75 13.2529 5.81378 13.8502 5.93505L14.1486 4.46503ZM9.34779 14.6517C10.8123 16.1161 13.1866 16.1161 14.6511 14.6517L13.5904 13.591C12.7118 14.4697 11.2871 14.4697 10.4085 13.591L9.34779 14.6517ZM14.6511 14.6517C16.1156 13.1872 16.1156 10.8128 14.6511 9.34835L13.5904 10.409C14.4691 11.2877 14.4691 12.7123 13.5904 13.591L14.6511 14.6517ZM19.4691 3.46967L3.4691 19.4697L4.52976 20.5303L20.5298 4.53033L19.4691 3.46967Z" fill="#888888"/>
</g>
</svg>
