<svg width="32" height="32" viewBox="0 0 32 32" fill="none" xmlns="http://www.w3.org/2000/svg">
<g id="Layer_1" clip-path="url(#clip0_93_35077)">
<path id="Vector" d="M22 0H10C4.47715 0 0 4.47715 0 10V22C0 27.5228 4.47715 32 10 32H22C27.5228 32 32 27.5228 32 22V10C32 4.47715 27.5228 0 22 0Z" fill="#FAE103"/>
<path id="Vector_2" d="M15.937 6.08107C10.3317 6.08107 5.78809 10.2846 5.78809 15.4691C5.78809 19.2991 7.39241 21.1256 9.58853 22.7928L9.59836 22.7987V27.2912C9.59836 27.5035 9.84019 27.6254 10.0112 27.4976L13.8589 24.6389L13.9414 24.6743C14.5863 24.7923 15.2528 24.8552 15.937 24.8552C21.5423 24.8552 26.0859 20.6517 26.0859 15.4672C26.0859 10.2826 21.5423 6.0791 15.937 6.0791M12.5337 17.8481C13.5286 17.8481 14.3799 17.2524 14.6355 16.3322H16.1061C15.7463 18.1037 14.3681 19.2637 12.5337 19.2637C10.4005 19.2637 8.70969 17.6731 8.70969 15.4593C8.70969 13.2455 10.4005 11.6549 12.5337 11.6549C14.3877 11.6549 15.7758 12.8385 16.1179 14.6394H14.6512C14.4271 13.6603 13.5482 13.0489 12.5337 13.0489C11.1004 13.0489 10.1449 14.0712 10.1449 15.4593C10.1449 16.8474 11.2302 17.8481 12.5337 17.8481ZM22.2305 19.1182H20.8817V16.0766C20.8817 15.3767 20.4728 14.9992 19.8476 14.9992C19.1476 14.9992 18.6974 15.4278 18.6974 16.2949V19.1182H17.3487V11.6765H18.6974V14.4763C19.0198 13.9847 19.5428 13.7449 20.2545 13.7449C20.8306 13.7449 21.3005 13.9336 21.6662 14.319C22.0437 14.7063 22.2305 15.2293 22.2305 15.9076V19.1182Z" fill="#020304"/>
</g>
<defs>
<clipPath id="clip0_93_35077">
<rect width="32" height="32" fill="white"/>
</clipPath>
</defs>
</svg>
