<svg width="16" height="16" viewBox="0 0 16 16" fill="none" xmlns="http://www.w3.org/2000/svg">
<path d="M5.66536 5.85733H10.332M5.66536 9.286H10.332M4.4987 2H11.4987C12.143 2 12.6654 2.54368 12.6654 3.21433V12.1785C12.6654 13.0812 11.7527 13.6683 10.9769 13.2646L10.8538 13.2005C10.5253 13.0296 10.1387 13.0296 9.81028 13.2005L8.52045 13.8718C8.192 14.0427 7.8054 14.0427 7.47695 13.8718L6.18711 13.2005C5.85866 13.0296 5.47206 13.0296 5.14362 13.2005L5.02045 13.2646C4.24473 13.6683 3.33203 13.0812 3.33203 12.1785V3.21433C3.33203 2.54368 3.85437 2 4.4987 2Z" stroke="#222222" stroke-linecap="round"/>
</svg>
