<svg width="36" height="36" viewBox="0 0 36 36" fill="none" xmlns="http://www.w3.org/2000/svg">
<path fill-rule="evenodd" clip-rule="evenodd" d="M10 17C10 13.134 13.134 10 17 10C20.866 10 24 13.134 24 17C24 18.8858 23.2543 20.5974 22.0417 21.8561C22.0073 21.8825 21.9743 21.9114 21.9428 21.9429C21.9113 21.9744 21.8824 22.0074 21.856 22.0418C20.5973 23.2543 18.8857 24 17 24C13.134 24 10 20.866 10 17ZM22.6176 24.0319C21.078 25.2635 19.125 26 17 26C12.0294 26 8 21.9706 8 17C8 12.0294 12.0294 8 17 8C21.9706 8 26 12.0294 26 17C26 19.125 25.2635 21.0781 24.0319 22.6177L27.707 26.2929C28.0975 26.6834 28.0975 27.3166 27.707 27.7071C27.3165 28.0976 26.6833 28.0976 26.2928 27.7071L22.6176 24.0319Z" fill="#222222"/>
</svg>
