<svg width="24" height="24" viewBox="0 0 24 24" fill="none" xmlns="http://www.w3.org/2000/svg">
<path d="M11 4C14.866 4 18 7.13401 18 11C18 12.5766 17.4781 14.031 16.5986 15.2012C16.6092 15.2091 16.6205 15.2162 16.6309 15.2246L16.707 15.293L19.707 18.293L19.7754 18.3691C20.0957 18.7619 20.0731 19.3409 19.707 19.707C19.3409 20.0731 18.7619 20.0957 18.3691 19.7754L18.293 19.707L15.293 16.707L15.2246 16.6309C15.2162 16.6205 15.2091 16.6092 15.2012 16.5986C14.031 17.4781 12.5766 18 11 18C7.13401 18 4 14.866 4 11C4 7.13401 7.13401 4 11 4ZM11 6C8.23858 6 6 8.23858 6 11C6 13.7614 8.23858 16 11 16C13.7614 16 16 13.7614 16 11C16 8.23858 13.7614 6 11 6Z" fill="#888888"/>
</svg>
